name GIL06_fast3EmgEnv.mot
datacolumns 51
datarows 10
range 0.34629631 0.35462964
endheader
                time	   rect_fem_l_emgRec	   rect_fem_l_emgEnv	   rect_fem_l_emgAve	   rect_fem_l_emgSDp	   rect_fem_l_emgSDm	   rect_fem_r_emgRec	   rect_fem_r_emgEnv	   rect_fem_r_emgAve	   rect_fem_r_emgSDp	   rect_fem_r_emgSDm	   med_hams_l_emgRec	   med_hams_l_emgEnv	   med_hams_l_emgAve	   med_hams_l_emgSDp	   med_hams_l_emgSDm	   med_hams_r_emgRec	   med_hams_r_emgEnv	   med_hams_r_emgAve	   med_hams_r_emgSDp	   med_hams_r_emgSDm	   lat_hams_l_emgRec	   lat_hams_l_emgEnv	   lat_hams_l_emgAve	   lat_hams_l_emgSDp	   lat_hams_l_emgSDm	   lat_hams_r_emgRec	   lat_hams_r_emgEnv	   lat_hams_r_emgAve	   lat_hams_r_emgSDp	   lat_hams_r_emgSDm	    tib_ant_l_emgRec	    tib_ant_l_emgEnv	    tib_ant_l_emgAve	    tib_ant_l_emgSDp	    tib_ant_l_emgSDm	    tib_ant_r_emgRec	    tib_ant_r_emgEnv	    tib_ant_r_emgAve	    tib_ant_r_emgSDp	    tib_ant_r_emgSDm	    gas_sol_l_emgRec	    gas_sol_l_emgEnv	    gas_sol_l_emgAve	    gas_sol_l_emgSDp	    gas_sol_l_emgSDm	    gas_sol_r_emgRec	    gas_sol_r_emgEnv	    gas_sol_r_emgAve	    gas_sol_r_emgSDp	    gas_sol_r_emgSDm	
          0.34629631	          0.01605948	          0.04169648	          0.02090510	          0.03586573	          0.00594447	          0.00846103	          0.06797372	          0.07941050	          0.13292757	          0.02589343	          0.02688128	          0.09055088	          0.24364610	          0.37821944	          0.10907276	          0.11877791	          0.26170752	          0.35055131	          0.47894496	          0.22215766	          0.01586102	          0.10785588	          0.27519780	          0.48132516	          0.06907044	          0.09991181	          0.15592380	          0.14073075	          0.23671936	          0.04474214	          0.03526917	          0.10902998	          0.10347515	          0.12144499	          0.08550532	          0.03734256	          0.17674549	          0.08020298	          0.17341926	         -0.01301330	          0.26338889	          0.38586180	          0.48717031	          0.62230685	          0.35203376	          0.00501747	          0.02533852	          0.00086156	          0.00839891	         -0.00667579	
          0.34722224	          0.01942372	          0.04170060	          0.02089427	          0.03572922	          0.00605933	          0.01578353	          0.07032866	          0.08123610	          0.13525439	          0.02721782	          0.01501977	          0.09098043	          0.24440113	          0.37717944	          0.11162281	          0.03649250	          0.26176992	          0.35192081	          0.48061478	          0.22322685	          0.01204495	          0.10777170	          0.27416375	          0.47682369	          0.07150382	          0.10852474	          0.15483207	          0.14015689	          0.23621838	          0.04409541	          0.02979158	          0.11135478	          0.10510799	          0.12301701	          0.08719898	          0.06981591	          0.17759799	          0.08186612	          0.17627418	         -0.01254195	          0.20777483	          0.38907610	          0.49576333	          0.63104646	          0.36048020	          0.00485763	          0.02564318	          0.00103428	          0.00858237	         -0.00651380	
          0.34814817	          0.00099274	          0.04171603	          0.02091742	          0.03564017	          0.00619466	          0.01766388	          0.07277048	          0.08311208	          0.13762980	          0.02859437	          0.01179310	          0.09152427	          0.24515811	          0.37615529	          0.11416093	          0.00118546	          0.26187813	          0.35327619	          0.48225342	          0.22429897	          0.00814785	          0.10776206	          0.27312019	          0.47232722	          0.07391317	          0.08018644	          0.15373645	          0.13960020	          0.23571958	          0.04348082	          0.00058317	          0.11364581	          0.10678373	          0.12464609	          0.08892136	          0.00954156	          0.17842255	          0.08362275	          0.17922449	         -0.01197900	          0.14468747	          0.39236886	          0.50439870	          0.63980356	          0.36899385	          0.01084047	          0.02592641	          0.00122071	          0.00878157	         -0.00634015	
          0.34907410	          0.01997855	          0.04174304	          0.02097420	          0.03559825	          0.00635015	          0.01123758	          0.07529678	          0.08503847	          0.14005369	          0.03002324	          0.00099334	          0.09218717	          0.24591634	          0.37514673	          0.11668594	          0.02984513	          0.26203037	          0.35461709	          0.48386052	          0.22537366	          0.00464918	          0.10783066	          0.27206746	          0.46783689	          0.07629803	          0.02610049	          0.15263934	          0.13906096	          0.23522322	          0.04289870	          0.00305508	          0.11590109	          0.10850064	          0.12633022	          0.09067107	          0.00676210	          0.17921438	          0.08547271	          0.18226964	         -0.01132422	          0.14943778	          0.39574699	          0.51307166	          0.64857377	          0.37756954	          0.01841569	          0.02618759	          0.00142086	          0.00899656	         -0.00615485	
          0.35000002	          0.02797297	          0.04178187	          0.02106428	          0.03560311	          0.00652545	          0.01480279	          0.07790486	          0.08701533	          0.14252603	          0.03150463	          0.00675607	          0.09297359	          0.24667513	          0.37415357	          0.11919670	          0.07355647	          0.26222470	          0.35594353	          0.48543598	          0.22645108	          0.00535548	          0.10798100	          0.27100581	          0.46335411	          0.07865751	          0.00916781	          0.15154300	          0.13853934	          0.23472943	          0.04234926	          0.02085053	          0.11811874	          0.11025703	          0.12806738	          0.09244668	          0.00001100	          0.17996879	          0.08741587	          0.18540921	         -0.01057746	          0.13850658	          0.39921745	          0.52177733	          0.65735257	          0.38620210	          0.03501802	          0.02642620	          0.00163474	          0.00922734	         -0.00595786	
          0.35092592	          0.03417897	          0.04183268	          0.02118726	          0.03565432	          0.00672020	          0.05000252	          0.08059181	          0.08904257	          0.14504658	          0.03303857	          0.00192844	          0.09388771	          0.24743369	          0.37317547	          0.12169191	          0.07397337	          0.26245907	          0.35725516	          0.48697942	          0.22753090	          0.00107556	          0.10821638	          0.26993561	          0.45888031	          0.08099091	          0.01619829	          0.15044954	          0.13803552	          0.23423833	          0.04183272	          0.01824693	          0.12029695	          0.11205107	          0.12985544	          0.09424670	          0.00371085	          0.18068115	          0.08945194	          0.18864253	         -0.00973865	          0.04208221	          0.40278724	          0.53051054	          0.66613519	          0.39488590	          0.04578707	          0.02664178	          0.00186236	          0.00947393	         -0.00574921	
          0.35185188	          0.04329491	          0.04189562	          0.02134272	          0.03575145	          0.00693400	          0.05334685	          0.08335445	          0.09112042	          0.14761548	          0.03462536	          0.00520059	          0.09493340	          0.24819137	          0.37221210	          0.12417064	          0.02594528	          0.26273137	          0.35855213	          0.48849098	          0.22861327	          0.00948918	          0.10853985	          0.26885712	          0.45441636	          0.08329788	          0.01651295	          0.14936093	          0.13754974	          0.23375016	          0.04134932	          0.00810638	          0.12243402	          0.11388110	          0.13169242	          0.09606977	          0.00361666	          0.18134696	          0.09158085	          0.19196934	         -0.00880764	          0.12109241	          0.40646340	          0.53926706	          0.67491789	          0.40361623	          0.04400616	          0.02683396	          0.00210374	          0.00973634	         -0.00552886	
          0.35277778	          0.03646021	          0.04197075	          0.02153019	          0.03589398	          0.00716641	          0.03489325	          0.08618936	          0.09324860	          0.15023232	          0.03626487	          0.00591024	          0.09611418	          0.24894735	          0.37126327	          0.12663143	          0.00211543	          0.26303942	          0.35983402	          0.48997016	          0.22969787	          0.01537617	          0.10895425	          0.26777074	          0.44996417	          0.08557731	          0.00342826	          0.14827896	          0.13708216	          0.23326505	          0.04089927	          0.01743002	          0.12452834	          0.11574503	          0.13357592	          0.09791414	          0.00045411	          0.18196183	          0.09380210	          0.19538871	         -0.00778451	          0.29090103	          0.41025296	          0.54804057	          0.68369474	          0.41238640	          0.04242866	          0.02700242	          0.00235885	          0.01001454	         -0.00529685	
          0.35370374	          0.01024725	          0.04205811	          0.02174921	          0.03608141	          0.00741702	          0.01531824	          0.08909289	          0.09542734	          0.15289726	          0.03795743	          0.00095173	          0.09743320	          0.24970092	          0.37032852	          0.12907331	          0.02607215	          0.26338102	          0.36110079	          0.49141692	          0.23078467	          0.02095230	          0.10946217	          0.26667660	          0.44552441	          0.08782880	          0.01724500	          0.14720529	          0.13663295	          0.23278313	          0.04048277	          0.03355636	          0.12657844	          0.11764118	          0.13550396	          0.09977840	          0.00526385	          0.18252148	          0.09611568	          0.19890041	         -0.00666905	          0.39194863	          0.41416295	          0.55682695	          0.69246218	          0.42119172	          0.04046457	          0.02714697	          0.00262770	          0.01030857	         -0.00505317	
          0.35462964	          0.00549411	          0.04215768	          0.02199921	          0.03631312	          0.00768530	          0.00310552	          0.09206119	          0.09765630	          0.15560977	          0.03970283	          0.00746624	          0.09889329	          0.25045127	          0.36940772	          0.13149481	          0.00434421	          0.26375396	          0.36235216	          0.49283093	          0.23187339	          0.03271733	          0.11006595	          0.26557526	          0.44109906	          0.09005146	          0.00423770	          0.14614139	          0.13620234	          0.23230468	          0.04009999	          0.02738347	          0.12858290	          0.11956736	          0.13747401	          0.10166072	          0.00271624	          0.18302180	          0.09852090	          0.20250333	         -0.00546154	          0.44301841	          0.41820034	          0.56561941	          0.70121385	          0.43002497	          0.02487008	          0.02726746	          0.00291023	          0.01061835	         -0.00479788	
